<?xml version="1.0" encoding="utf-8"?>
<!-- Generator: Adobe Illustrator 23.0.1, SVG Export Plug-In . SVG Version: 6.00 Build 0)  -->
<svg version="1.1" id="Calque_1" xmlns="http://www.w3.org/2000/svg" xmlns:xlink="http://www.w3.org/1999/xlink" x="0px" y="0px"
	 viewBox="0 0 432 432" style="enable-background:new 0 0 432 432;" xml:space="preserve">
<style type="text/css">
	.st0{fill:#AB8056;}
	.st1{fill:#1A1A1A;}
	.st2{fill:#736358;}
	.st3{fill:#C48C10;}
	.st4{fill:#544841;}
	.st5{fill:#E884A9;}
	.st6{fill:#B3B3B2;}
	.st7{fill:#C0282E;}
	.st8{fill:#333333;}
	.st9{fill:#19854B;}
	.st10{fill:#EBC776;}
	.st11{fill:#D5A953;}
	.st12{fill:#E1DFDB;}
	.st13{fill:#D2B155;}
	.st14{fill:#E8973E;}
	.st15{fill:#3A6C51;}
	.st16{fill:#036838;}
	.st17{fill:#4E695A;}
	.st18{fill:#8B3F43;}
	.st19{fill:#476C58;}
	.st20{fill:#A24F4D;}
	.st21{fill:#C5ADA4;}
	.st22{fill:#CCCBCB;}
	.st23{fill:#B79FA7;}
	.st24{fill:#815969;}
	.st25{fill:#A7A7A6;}
	.st26{fill:#D0AD76;}
	.st27{fill:#E8B953;}
	.st28{fill:#C59B6C;}
	.st29{fill:#F29222;}
	.st30{fill:#E6E5E5;}
	.st31{fill:#D2B79A;}
	.st32{fill:#BE8B65;}
	.st33{fill:#81A993;}
	.st34{fill:#9C7684;}
	.st35{fill:#824D61;}
	.st36{fill:#B14044;}
	.st37{fill:#8F5168;}
	.st38{fill:#D88EA9;}
	.st39{fill:#805C5C;}
	.st40{fill:#CCA3A3;}
	.st41{fill:#FFFFFF;}
	.st42{fill:#6A9DC3;}
	.st43{fill:#F49F5A;}
	.st44{fill:#6A3E4D;}
	.st45{fill:#F8AF3C;}
	.st46{fill:#EA5877;}
	.st47{fill:#F1D86A;}
	.st48{fill:#5EBEBD;}
	.st49{fill:#BDCD55;}
	.st50{fill:#A5A4A5;}
	.st51{fill:#B09FA0;}
	.st52{fill:#60AE9F;}
	.st53{fill:#BB8071;}
	.st54{fill:#9E7BB5;}
	.st55{fill:#A57C52;}
	.st56{fill:#E8973E;stroke:#E8973E;stroke-miterlimit:10;}
	.st57{fill:#AD375A;}
	.st58{fill:#7E8C66;}
	.st59{fill:#7C887F;}
	.st60{fill:#472912;}
	.st61{fill:#2B1A0F;}
	.st62{fill:#E52E31;}
	.st63{fill:#CA656A;}
	.st64{fill:#4E4D4D;}
	.st65{fill:#3A6D86;}
	.st66{fill:#1D1D1B;}
	.st67{fill:#0D0D0D;}
	.st68{fill:#EA94AA;}
	.st69{fill:#8DA198;}
	.st70{fill:#C896A9;}
	.st71{fill:#F5C645;}
	.st72{fill:#EFB443;}
	.st73{fill:#E68A44;}
	.st74{fill:#622C6A;}
	.st75{fill:#279352;}
	.st76{fill:#479754;}
	.st77{fill:#8764A2;}
	.st78{fill:#B59471;}
	.st79{fill:#B8D38E;}
	.st80{fill:#5CAF62;}
	.st81{fill:#F5DB56;}
	.st82{fill:#9C9E9F;}
	.st83{fill:#207242;}
	.st84{fill:#404041;}
	.st85{fill:#C1C2C1;}
	.st86{fill:#CBCACA;}
	.st87{fill:#904290;}
	.st88{fill:#129E56;}
	.st89{fill:#F1CC45;}
	.st90{fill:#5C3289;}
	.st91{fill:#2AA658;}
	.st92{fill:#C49A6C;}
	.st93{fill:#F1F1F1;}
	.st94{fill:#754D27;}
	.st95{fill:#8B6239;}
	.st96{fill:#B3B2B2;}
	.st97{fill:#979796;}
	.st98{fill:#C38045;}
	.st99{fill:#0E1014;}
	.st100{fill:#D8AA58;}
	.st101{fill:#0B0C0E;}
	.st102{fill:#6A4694;}
	.st103{fill:#3EA958;}
	.st104{fill:#FAD96F;}
	.st105{fill:#C58489;}
	.st106{fill:#C98C94;}
	.st107{fill:#2C2E30;}
	.st108{fill:#DDAAB1;}
	.st109{fill:#5A9AB5;}
	.st110{fill:#989898;}
	.st111{fill:#469771;}
	.st112{fill:#B59825;}
	.st113{fill:#E96C99;}
	.st114{fill:#BFA490;}
	.st115{fill:#808080;}
	.st116{fill:#80C9CB;}
	.st117{fill:#C9CE66;}
	.st118{fill:#72A6CB;}
	.st119{fill:#ED799D;}
	.st120{fill:#F4AB5E;}
	.st121{fill:#F2902A;}
	.st122{fill:#7FBB48;}
	.st123{fill:#ED7AA9;}
	.st124{fill:#53A2DA;}
	.st125{fill:#07473E;}
	.st126{fill:#960527;}
	.st127{fill:#110A09;}
	.st128{fill:#F15A24;}
	.st129{fill:#9B0808;}
	.st130{fill:#EFEFEF;}
	.st131{fill:#87C1BF;}
	.st132{fill:#E58645;}
	.st133{fill:#4F3928;}
	.st134{fill:#666666;}
	.st135{fill:#BDCCD4;}
	.st136{fill:#A0C1C0;}
</style>
<g>
	<g>
		<g>
			<path class="st6" d="M281.51,110.76c0,0.5,0,0.85,0,1.2c0.05,5.45,0.09,10.9,0.14,16.35c0,0.4,0.02,0.8-0.04,1.2
				c-0.14,0.86-0.81,1.43-1.56,1.38c-0.72-0.05-1.29-0.62-1.39-1.45c-0.04-0.36-0.03-0.73-0.03-1.09
				c-0.01-5.63-0.01-11.26-0.02-16.89c0-0.4,0-0.8,0-1.45c-0.36,0.34-0.58,0.52-0.77,0.74c-2.02,2.33-4.03,4.68-6.05,7.01
				c-0.26,0.3-0.53,0.61-0.85,0.83c-0.6,0.42-1.3,0.34-1.8-0.12c-0.5-0.46-0.62-1.16-0.26-1.79c0.2-0.34,0.46-0.65,0.72-0.95
				c1.97-2.29,3.94-4.57,5.91-6.85c0.23-0.27,0.44-0.55,0.76-0.95c-0.38-0.04-0.61-0.08-0.85-0.08c-5.2,0.01-10.39,0.02-15.59,0.03
				c-0.25,0-0.51,0.01-0.76-0.03c-0.74-0.12-1.28-0.71-1.28-1.4c-0.01-0.69,0.51-1.32,1.24-1.45c0.35-0.06,0.72-0.05,1.09-0.05
				c4.87,0,9.74,0,14.61,0c0.39,0,0.78,0,1.39,0c-0.3-0.39-0.47-0.64-0.67-0.86c-1.56-1.67-3.13-3.34-4.7-5.01
				c-0.32-0.34-0.66-0.68-0.95-1.05c-0.54-0.71-0.49-1.54,0.09-2.07c0.57-0.53,1.39-0.5,2.07,0.08c0.3,0.26,0.57,0.56,0.84,0.85
				c1.62,1.72,3.23,3.45,4.84,5.17c0.21,0.23,0.45,0.44,0.88,0.86c0-0.67,0-1.08,0-1.5c-0.01-4.9-0.03-9.81-0.04-14.71
				c0-0.4,0-0.81,0.1-1.19c0.18-0.72,0.75-1.12,1.43-1.1c0.68,0.02,1.22,0.45,1.38,1.17c0.07,0.31,0.06,0.65,0.06,0.97
				c0.03,4.69,0.05,9.37,0.07,14.06c0,0.29,0,0.58,0,1.04c0.28-0.21,0.49-0.32,0.63-0.48c1.36-1.56,2.71-3.13,4.07-4.7
				c0.26-0.3,0.53-0.6,0.85-0.83c0.55-0.39,1.22-0.34,1.72,0.07c0.54,0.44,0.7,1.13,0.37,1.77c-0.16,0.32-0.4,0.6-0.64,0.88
				c-1.56,1.82-3.13,3.63-4.69,5.45c-0.23,0.27-0.44,0.55-0.8,0.99c0.6,0.02,1.01,0.04,1.42,0.04c5.63-0.01,11.26-0.03,16.89-0.04
				c0.43,0,0.88,0.02,1.29,0.13c0.7,0.19,1.11,0.81,1.07,1.46c-0.04,0.66-0.53,1.21-1.23,1.34c-0.32,0.06-0.65,0.04-0.98,0.04
				c-5.7,0.02-11.41,0.05-17.11,0.07c-0.32,0-0.64,0-1.18,0c0.29,0.38,0.46,0.63,0.66,0.85c2.16,2.31,4.32,4.61,6.48,6.92
				c0.27,0.29,0.54,0.6,0.73,0.94c0.32,0.59,0.18,1.25-0.28,1.69c-0.47,0.45-1.13,0.55-1.71,0.2c-0.3-0.18-0.57-0.45-0.82-0.71
				c-1.8-1.9-3.58-3.82-5.38-5.72C282.5,111.62,282.08,111.28,281.51,110.76z"/>
			<path class="st6" d="M134.02,257.64c0,0.5,0,0.85,0,1.2c0.06,5.45,0.12,10.9,0.18,16.35c0,0.4,0.02,0.8-0.04,1.2
				c-0.14,0.86-0.81,1.43-1.56,1.38c-0.72-0.05-1.29-0.62-1.39-1.44c-0.04-0.36-0.03-0.73-0.03-1.09
				c-0.02-5.63-0.04-11.26-0.06-16.89c0-0.4,0-0.8,0-1.45c-0.36,0.34-0.58,0.52-0.77,0.74c-2.01,2.34-4.02,4.69-6.04,7.03
				c-0.26,0.3-0.53,0.61-0.85,0.84c-0.6,0.42-1.3,0.35-1.8-0.12c-0.5-0.46-0.63-1.16-0.27-1.79c0.19-0.34,0.46-0.65,0.72-0.95
				c1.96-2.29,3.93-4.58,5.89-6.87c0.23-0.27,0.44-0.55,0.76-0.95c-0.38-0.04-0.61-0.08-0.85-0.08c-5.2,0.02-10.39,0.04-15.59,0.07
				c-0.25,0-0.51,0.01-0.76-0.03c-0.74-0.12-1.28-0.71-1.29-1.4c-0.01-0.69,0.51-1.32,1.24-1.45c0.35-0.06,0.72-0.05,1.09-0.05
				c4.87-0.02,9.74-0.03,14.61-0.04c0.39,0,0.78,0,1.39,0c-0.3-0.39-0.47-0.64-0.67-0.86c-1.57-1.67-3.14-3.33-4.71-5
				c-0.32-0.34-0.66-0.68-0.95-1.05c-0.54-0.71-0.49-1.54,0.08-2.07c0.57-0.53,1.38-0.51,2.07,0.08c0.3,0.26,0.57,0.56,0.84,0.85
				c1.62,1.72,3.24,3.44,4.86,5.16c0.21,0.23,0.45,0.43,0.88,0.85c0-0.67,0-1.08,0-1.5c-0.03-4.9-0.05-9.81-0.07-14.71
				c0-0.4,0-0.81,0.09-1.19c0.18-0.72,0.74-1.12,1.43-1.11c0.68,0.01,1.22,0.45,1.39,1.17c0.07,0.31,0.06,0.65,0.06,0.97
				c0.04,4.69,0.07,9.37,0.11,14.06c0,0.29,0,0.58,0,1.04c0.28-0.22,0.49-0.32,0.63-0.48c1.36-1.56,2.7-3.14,4.06-4.71
				c0.26-0.3,0.53-0.61,0.85-0.83c0.55-0.39,1.22-0.34,1.72,0.07c0.54,0.44,0.7,1.12,0.38,1.77c-0.16,0.32-0.4,0.6-0.64,0.88
				c-1.56,1.82-3.12,3.64-4.68,5.46c-0.23,0.27-0.44,0.55-0.8,1c0.6,0.02,1.01,0.04,1.42,0.04c5.63-0.03,11.26-0.06,16.89-0.08
				c0.43,0,0.88,0.01,1.29,0.13c0.7,0.19,1.11,0.8,1.07,1.46c-0.04,0.66-0.52,1.21-1.23,1.34c-0.32,0.06-0.65,0.04-0.98,0.04
				c-5.7,0.04-11.41,0.08-17.11,0.11c-0.32,0-0.64,0-1.18,0c0.3,0.38,0.46,0.63,0.66,0.84c2.16,2.3,4.34,4.6,6.5,6.91
				c0.27,0.29,0.54,0.6,0.73,0.94c0.32,0.59,0.19,1.25-0.28,1.69c-0.47,0.45-1.13,0.55-1.71,0.2c-0.31-0.18-0.57-0.45-0.82-0.71
				c-1.8-1.9-3.59-3.81-5.39-5.7C135.02,258.5,134.59,258.16,134.02,257.64z"/>
			<path class="st6" d="M268.74,145.81c-0.11,0.16-0.26,0.5-0.51,0.74c-0.2,0.19-0.51,0.27-0.78,0.35c-0.4,0.12-0.81,0.21-1.22,0.31
				c-1.69,0.44-2.82,1.5-3.28,3.18c-0.28,1.03-0.42,2.11-0.6,3.16c-0.07,0.41-0.08,0.84-0.16,1.25c-0.1,0.57-0.49,0.91-1.01,0.93
				c-0.5,0.02-0.88-0.24-1.07-0.77c-0.07-0.2-0.09-0.41-0.14-0.61c-0.34-1.7-0.8-3.37-1.51-4.96c-0.55-1.24-1.46-2.03-2.77-2.35
				c-0.38-0.09-0.77-0.19-1.14-0.29c-0.23-0.06-0.46-0.13-0.66-0.25c-0.74-0.45-0.79-1.42-0.07-1.9c0.29-0.2,0.67-0.29,1.02-0.39
				c1.88-0.51,3.26-1.58,3.81-3.5c0.34-1.18,0.57-2.4,0.85-3.6c0.08-0.33,0.11-0.68,0.22-1c0.16-0.46,0.49-0.74,0.99-0.77
				c0.49-0.02,0.94,0.23,1.12,0.72c0.12,0.31,0.16,0.66,0.2,1c0.16,1.22,0.26,2.45,0.47,3.67c0.41,2.4,1.1,3.07,3.46,3.51
				c0.59,0.11,1.19,0.18,1.79,0.3C268.35,144.66,268.72,145.09,268.74,145.81z"/>
			<path class="st6" d="M168.09,142.48c-0.11,0.16-0.26,0.5-0.51,0.74c-0.2,0.19-0.51,0.27-0.78,0.35c-0.4,0.12-0.81,0.21-1.22,0.31
				c-1.69,0.44-2.82,1.5-3.28,3.18c-0.28,1.03-0.42,2.11-0.6,3.16c-0.07,0.41-0.08,0.84-0.16,1.25c-0.1,0.57-0.49,0.91-1.01,0.93
				c-0.5,0.02-0.88-0.24-1.07-0.77c-0.07-0.2-0.09-0.41-0.14-0.61c-0.34-1.7-0.8-3.37-1.51-4.96c-0.55-1.24-1.46-2.03-2.77-2.35
				c-0.38-0.09-0.77-0.19-1.14-0.29c-0.23-0.06-0.46-0.13-0.66-0.25c-0.74-0.45-0.79-1.42-0.07-1.9c0.29-0.2,0.67-0.29,1.02-0.39
				c1.88-0.51,3.26-1.58,3.81-3.5c0.34-1.18,0.57-2.4,0.85-3.6c0.08-0.33,0.11-0.68,0.22-1c0.16-0.46,0.49-0.74,0.99-0.77
				c0.49-0.02,0.94,0.23,1.12,0.72c0.12,0.31,0.16,0.66,0.2,1c0.16,1.22,0.26,2.45,0.47,3.67c0.41,2.4,1.1,3.07,3.46,3.51
				c0.59,0.11,1.19,0.18,1.79,0.3C167.7,141.34,168.07,141.76,168.09,142.48z"/>
			<path class="st6" d="M276.48,248.49c-0.11,0.16-0.26,0.5-0.51,0.74c-0.2,0.19-0.51,0.27-0.78,0.35c-0.4,0.12-0.81,0.21-1.22,0.31
				c-1.69,0.44-2.82,1.5-3.28,3.18c-0.28,1.03-0.42,2.11-0.6,3.16c-0.07,0.41-0.08,0.84-0.16,1.25c-0.1,0.57-0.49,0.91-1.01,0.93
				c-0.5,0.02-0.88-0.24-1.07-0.77c-0.07-0.2-0.09-0.41-0.14-0.61c-0.34-1.7-0.8-3.37-1.51-4.96c-0.55-1.24-1.46-2.03-2.77-2.35
				c-0.38-0.09-0.77-0.19-1.14-0.29c-0.23-0.06-0.46-0.13-0.66-0.25c-0.74-0.45-0.79-1.42-0.07-1.9c0.29-0.2,0.67-0.29,1.02-0.39
				c1.88-0.51,3.26-1.58,3.81-3.5c0.34-1.18,0.57-2.4,0.85-3.6c0.08-0.33,0.11-0.68,0.22-1c0.16-0.46,0.49-0.74,0.99-0.77
				c0.49-0.02,0.94,0.23,1.12,0.72c0.12,0.31,0.16,0.66,0.2,1c0.16,1.22,0.26,2.45,0.47,3.67c0.41,2.4,1.1,3.07,3.46,3.51
				c0.59,0.11,1.19,0.18,1.79,0.3C276.1,247.34,276.46,247.77,276.48,248.49z"/>
		</g>
		<g>
			<path class="st6" d="M202.87,257.57c-9.55-3.35-17.27-9.07-22.62-17.72c-5.31-8.59-7.34-17.93-5.94-28.04
				c-0.3-0.11-0.59-0.24-0.89-0.31c-4.82-1.16-8.93-3.6-12.55-6.92c-1.55-1.43-3.09-2.87-4.57-4.37c-1.9-1.93-4.14-3.26-6.7-4.14
				c-3.17-1.09-6.41-1.87-9.75-2.22c-2.69-0.28-5.37-0.04-8.02,0.5c-0.39,0.08-0.78,0.18-1.17,0.23c-1.08,0.14-2.02-0.5-2.22-1.48
				c-0.2-0.96,0.45-1.88,1.56-2.14c4-0.92,8.03-1.25,12.11-0.54c0.18,0.03,0.35,0.04,0.61-0.09c-0.32-0.18-0.63-0.36-0.95-0.54
				c-3.45-1.86-6.93-3.68-10.35-5.58c-1.39-0.77-2.69-1.72-4.02-2.6c-3.68-2.44-6.7-5.56-9.2-9.18c-0.23-0.33-0.46-0.66-0.61-1.03
				c-0.34-0.84-0.05-1.74,0.67-2.21c0.72-0.47,1.64-0.38,2.29,0.27c0.25,0.25,0.46,0.56,0.67,0.86c2.44,3.55,5.5,6.45,9.09,8.83
				c3.49,2.31,7.12,4.36,10.88,6.2c3.86,1.88,7.61,3.96,11.05,6.54c1.39,1.04,2.74,2.15,4.15,3.27c0.01-0.12,0.05-0.22,0.02-0.28
				c-2.33-4.53-4.01-9.33-5.95-14.03c-0.29-0.7-0.64-1.38-1.01-2.04c-0.58-1.03-0.45-2.03,0.38-2.62c0.81-0.57,1.93-0.41,2.6,0.51
				c0.51,0.7,0.92,1.48,1.25,2.28c1.19,2.89,2.31,5.8,3.49,8.69c1.48,3.64,3.25,7.13,5.37,10.45c1.1,1.72,2.42,3.27,3.85,4.72
				c2.44,2.46,5.5,3.85,8.78,5.07c0.13-0.44,0.23-0.81,0.35-1.18c1.92-6.33,5.1-11.93,9.78-16.64c3.86-3.89,8.5-6.39,13.7-7.97
				c0.28-0.08,0.55-0.17,0.83-0.26c0.06-0.02,0.12-0.08,0.22-0.16c-0.27-0.15-0.52-0.3-0.77-0.42c-5.34-2.6-9.4-6.53-12.09-11.82
				c-1.87-3.66-3.36-7.46-4.19-11.53c-2.59-12.8,3.73-24.64,13.8-30.02c7.9-4.22,16.25-5.2,24.79-2.53
				c8.79,2.75,14.61,8.82,17.76,17.43c1.78,4.86,2.12,9.91,1.59,15.04c-0.82,7.89-4.54,14.21-10.48,19.32
				c-1.78,1.53-3.83,2.62-5.96,3.57c-0.32,0.14-0.63,0.31-1.14,0.56c0.78,0.2,1.37,0.33,1.95,0.51c2.46,0.75,4.95,1.43,7.38,2.29
				c5.26,1.84,9.43,5.22,12.96,9.45c2.44,2.92,4.4,6.13,5.91,9.63c0.16,0.36,0.32,0.72,0.49,1.11c3.94-2.38,7.36-5.24,10.04-8.88
				c1.94-2.64,3.09-5.63,3.47-8.93c0.41-3.6,0.97-7.19,1.48-10.78c0.05-0.36,0.13-0.72,0.26-1.05c0.37-0.9,1.2-1.33,2.11-1.13
				c0.85,0.19,1.44,0.89,1.36,1.84c-0.11,1.15-0.38,2.29-0.53,3.44c-0.41,3.08-0.79,6.16-1.22,9.49c0.47-0.39,0.75-0.61,1.01-0.84
				c4.61-4.19,9.57-7.92,15-11c1.2-0.68,2.45-1.27,3.67-1.92c5.86-3.13,11.72-6.26,17.59-9.38c1.03-0.55,2.07-1.05,3.11-1.57
				c0.29-0.14,0.59-0.29,0.9-0.38c0.81-0.24,1.65,0.1,2.07,0.8c0.4,0.67,0.36,1.55-0.23,2.11c-0.38,0.37-0.87,0.64-1.35,0.89
				c-6.22,3.31-12.44,6.61-18.67,9.91c-0.09,0.05-0.18,0.12-0.35,0.25c0.24,0.13,0.43,0.25,0.63,0.34c1.51,0.71,3.02,1.41,4.53,2.14
				c0.32,0.16,0.64,0.37,0.89,0.61c0.62,0.6,0.71,1.49,0.29,2.2c-0.42,0.7-1.27,1.05-2.07,0.79c-0.41-0.13-0.79-0.36-1.19-0.54
				c-1.52-0.68-3.05-1.36-4.57-2.03c-0.23-0.1-0.48-0.17-0.72-0.25c-2.6-0.79-2.78-0.78-5.08,0.66c-5.96,3.7-11.29,8.18-16.18,13.19
				c-0.13,0.13-0.23,0.28-0.34,0.42c-0.02,0.02,0,0.07,0,0.19c0.57-0.05,1.12-0.11,1.68-0.15c2.73-0.21,5.45,0.03,8.16,0.3
				c2.71,0.26,5.41,0.65,8.11,0.99c0.4,0.05,0.8,0.11,1.18,0.22c0.98,0.3,1.52,1.13,1.36,2.07c-0.15,0.89-0.89,1.52-1.88,1.46
				c-1.05-0.06-2.09-0.25-3.13-0.39c-4.03-0.54-8.07-1.01-12.15-1.02c-2.24-0.01-4.42,0.39-6.51,1.16
				c-0.93,0.34-1.86,0.88-2.58,1.55c-2.28,2.15-4.67,4.14-7.31,5.84c-0.51,0.33-0.99,0.71-1.48,1.06c0.39,1.7,0.83,3.31,1.13,4.95
				c1.63,8.9,1.07,17.58-2.72,25.9c-4.03,8.86-10.68,14.99-19.63,18.68c-0.36,0.15-0.73,0.3-1.26,0.52
				c0.44,0.16,0.73,0.28,1.02,0.37c12.18,3.81,21.83,11.2,29.51,21.22c3.98,5.19,6.28,11.18,7.17,17.68
				c1.31,9.57,0.07,18.74-4.16,27.48c-3.41,7.04-8.02,13.04-14.61,17.38c-5.98,3.94-12.56,6.3-19.63,7.35
				c-3.17,0.47-6.36,0.69-9.56,0.59c-12-0.38-23.15-3.53-33.09-10.4c-5.25-3.63-9.65-8.13-13.15-13.5
				c-3.31-5.08-5.25-10.65-6.12-16.62c-1.16-7.95,0.16-15.54,3.27-22.89c2.78-6.55,6.42-12.53,11.48-17.59
				c5.28-5.27,11.48-8.96,18.68-10.94c0.38-0.1,0.75-0.22,1.13-0.33C202.85,257.72,202.86,257.64,202.87,257.57z M216.03,259.84
				c-4.32,0-7.38,0.4-11.37,1.31c-8.82,2.03-16.04,6.6-21.8,13.55c-3.99,4.81-6.84,10.25-8.97,16.1
				c-1.91,5.26-2.72,10.67-2.18,16.27c0.68,7.06,2.95,13.51,7.24,19.21c4.35,5.79,9.71,10.41,16.17,13.67
				c9.5,4.8,19.58,6.94,30.24,6.29c4.12-0.25,8.14-0.98,12.06-2.26c7.65-2.51,14.18-6.66,19.05-13.16
				c3.66-4.88,6.19-10.33,7.72-16.23c1.32-5.06,1.41-10.2,0.9-15.36c-0.71-7.17-3.38-13.55-7.92-19.14
				c-2.23-2.74-4.73-5.22-7.41-7.53c-3.9-3.36-8.14-6.2-12.82-8.37C230.22,261.09,223.12,259.91,216.03,259.84z M251.63,221.37
				c0.04-2.75-0.31-5.78-0.96-8.77c-1.32-6.05-3.69-11.62-7.65-16.44c-2.78-3.38-5.96-6.32-10.06-7.98c-6.4-2.59-12.98-4.44-20-4.03
				c-3.15,0.18-6.32,0.14-9.44,0.7c-5.17,0.93-9.94,2.8-13.93,6.29c-7.19,6.29-10.98,14.34-11.89,23.75
				c-0.66,6.81,0.74,13.31,3.72,19.45c3.7,7.64,9.36,13.44,16.93,17.27c8.8,4.45,18.04,6.25,27.77,3.85
				c10.62-2.61,18.25-8.94,22.64-19.03C250.81,231.73,251.67,226.79,251.63,221.37z M237.43,153.6c0.08-3.39-0.49-6.85-1.79-10.16
				c-2.9-7.37-8.04-12.52-15.68-14.73c-7.35-2.12-14.61-1.34-21.31,2.39c-8.12,4.51-12.29,11.58-12.5,20.89
				c-0.04,1.66,0.22,3.33,0.45,4.98c0.75,5.41,2.82,10.28,6.24,14.52c4.5,5.58,10.41,8.46,17.54,8.77c3.35,0.15,6.56-0.69,9.69-1.77
				c3.21-1.1,6.25-2.54,8.81-4.85c2.99-2.7,5.21-5.94,6.77-9.63C237.03,160.74,237.46,157.29,237.43,153.6z"/>
			<path class="st6" d="M225.4,301.95c-0.01,3.91-3.17,7.02-7.11,6.98c-3.87-0.03-6.95-3.16-6.93-7.05c0.02-3.97,3.1-7.11,6.99-7.12
				C222.28,294.75,225.41,297.94,225.4,301.95z"/>
			<path class="st6" d="M224.34,275.21c0.01,3.92-3.15,7.08-7.05,7.06c-3.86-0.02-6.97-3.16-6.97-7.03
				c-0.01-3.91,3.17-7.09,7.06-7.06C221.23,268.2,224.34,271.34,224.34,275.21z"/>
			<path class="st6" d="M216.26,247.62c-3.89-0.02-7.03-3.23-6.99-7.13c0.04-3.84,3.23-6.97,7.07-6.94c3.86,0.03,6.99,3.18,7,7.02
				C223.34,244.47,220.15,247.65,216.26,247.62z"/>
			<path class="st6" d="M207.56,154.3c0.09-0.9,0.14-1.8,0.28-2.69c0.14-0.86,0.37-1.7,0.58-2.55c0.41-1.64,1.5-2.53,3.2-2.58
				c1.7-0.05,3.34,0.36,4.88,0.97c2.66,1.06,5.25,2.29,7.86,3.48c0.77,0.35,1.27,0.96,1.27,1.87c0.01,0.95-0.49,1.64-1.31,1.96
				c-1.45,0.56-2.92,1.12-4.44,1.45c-2.76,0.6-5.56,1.03-8.35,1.51c-0.35,0.06-0.73,0.06-1.09,0.04c-1.58-0.08-2.62-1.11-2.74-2.68
				c-0.02-0.25-0.03-0.51-0.04-0.76C207.62,154.3,207.59,154.3,207.56,154.3z M211.96,150.16c-0.12,0.73-0.23,1.33-0.31,1.94
				c-0.08,0.59-0.12,1.19-0.19,1.9c2.63-0.38,5.1-0.69,7.76-1.45C216.76,151.36,214.52,150.49,211.96,150.16z"/>
			<path class="st6" d="M213.72,167.96c-2.96-0.04-5.18-0.74-7.16-2.13c-0.44-0.31-0.84-0.7-1.16-1.13
				c-0.53-0.72-0.41-1.54,0.2-2.05c0.59-0.49,1.35-0.49,1.97,0.12c1.34,1.3,2.97,1.87,4.77,2.14c1.63,0.24,3.02-0.22,4.22-1.27
				c0.57-0.5,1.05-1.1,1.58-1.64c0.65-0.66,1.42-0.74,2.05-0.24c0.62,0.49,0.78,1.34,0.26,2.05
				C218.65,166.25,216.38,167.92,213.72,167.96z"/>
			<path class="st6" d="M201.79,143.79c-0.15,0.55-0.22,1.14-0.47,1.65c-0.72,1.48-2.53,1.79-3.75,0.69
				c-1.13-1.02-1.71-3.44-1.12-4.83c0.37-0.88,0.99-1.51,2-1.62c1-0.1,1.77,0.31,2.3,1.14C201.34,141.71,201.7,142.68,201.79,143.79
				z"/>
			<path class="st6" d="M220.87,141.86c0.2-0.68,0.29-1.42,0.61-2.04c0.7-1.38,2.42-1.64,3.46-0.49c1.12,1.24,1.54,2.77,1.19,4.43
				c-0.27,1.25-1.22,1.84-2.4,2.06c-0.88,0.17-1.54-0.29-2-1.02C221.17,143.92,220.99,142.93,220.87,141.86z"/>
		</g>
	</g>
	<g>
		<path class="st7" d="M161.88,228.72c-1.65-0.84-3.23-1.65-4.82-2.46c-0.91,1.04-1.87,2.14-2.84,3.23c-0.22,0.25-0.46,0.5-0.73,0.7
			c-0.59,0.43-1.36,0.43-1.9,0.04c-0.54-0.39-0.69-1.05-0.31-1.63c0.18-0.27,0.43-0.51,0.64-0.76c1-1.2,1.99-2.41,2.99-3.61
			c0.29-0.35,0.41-0.73,0.28-1.16c-0.32-1.09-0.06-2.16,0.44-3.14c0.65-1.27,1.31-2.55,2.17-3.7c4.59-6.17,8.46-12.66,11.96-19.34
			c1.42-2.71,3.06-5.31,4.98-7.77c0.42-0.54,0.49-1.06,0.45-1.68c-0.23-3.7-0.16-7.39,0.98-11c0.32-0.99,0.78-1.98,1.36-2.88
			c1.43-2.2,3.74-3.28,6.57-3.58c1.34-0.14,2.67,0,4.01,0.15c2.66,0.31,5.33,0.56,7.99,0.83c8.06,0.81,16.16,0.91,24.25,0.7
			c4.91-0.13,9.77-0.65,14.44-2.08c0.88-0.27,1.82-0.43,2.75-0.55c1.47-0.19,2.7,0.29,3.77,1.16c0.94,0.77,1.65,1.69,2.17,2.7
			c2.62,5.03,4.02,10.27,3.52,15.82c-0.12,1.36-0.49,2.67-1.03,3.96c-1.05,2.49-3,4.2-5.78,5.24c-2.15,0.81-4.43,1.21-6.69,1.65
			c-4.64,0.9-9.33,1.58-14.05,2.06c-1.51,0.15-3.04,0.18-4.56,0.26c-0.28,0.02-0.57,0.04-0.92,0.06c-0.02,0.32-0.06,0.59-0.04,0.87
			c0.13,2.3,0.26,4.6,0.42,6.9c0.15,2.24,0.37,4.47,0.5,6.71c0.11,1.9,0.01,3.79-0.52,5.64c-0.12,0.43-0.22,0.89-0.5,1.25
			c-0.76,0.98-0.65,2.04-0.5,3.1c0.13,0.91,0.31,1.81,0.46,2.72c0.02,0.12,0.05,0.25,0.05,0.38c0.01,0.67-0.44,1.21-1.11,1.35
			c-0.73,0.16-1.46-0.16-1.72-0.85c-0.2-0.53-0.28-1.11-0.38-1.67c-0.13-0.69-0.22-1.38-0.33-2.06c0-0.03-0.04-0.05-0.14-0.16
			c-1.65,0-3.37,0-5.2,0c-0.21,0.9-0.43,1.85-0.65,2.8c-0.07,0.31-0.12,0.62-0.2,0.93c-0.23,0.9-0.85,1.34-1.72,1.23
			c-0.84-0.1-1.31-0.7-1.17-1.64c0.14-0.94,0.38-1.86,0.57-2.8c0.06-0.31,0.11-0.61,0.19-1.03c-1.68-0.18-3.28-0.35-4.97-0.53
			c-0.11,0.9-0.22,1.68-0.3,2.46c-0.09,0.88-0.15,1.76-0.25,2.64c-0.03,0.25-0.09,0.5-0.2,0.73c-0.26,0.49-0.85,0.77-1.42,0.7
			c-0.59-0.07-1.04-0.34-1.2-0.84c-0.11-0.36-0.14-0.75-0.1-1.12c0.13-1.57,0.3-3.14,0.47-4.81c-0.71-0.11-1.4-0.21-2.16-0.32
			c-0.14,0.4-0.26,0.76-0.38,1.12c-0.45,1.37-1.11,2.65-1.9,3.91c-0.45,0.72-0.56,1.62-0.7,2.45c-0.21,1.25-0.32,2.51-0.47,3.77
			c0,0.03,0,0.06-0.01,0.09c-0.12,0.89-0.74,1.4-1.61,1.35c-0.84-0.05-1.42-0.67-1.37-1.55c0.05-0.79,0.18-1.57,0.27-2.36
			c0.05-0.4,0.08-0.8,0.11-1.2c-1.7,0.15-3.31,0.29-5.02,0.43c-0.55,1.6-1.12,3.26-1.68,4.93c-0.06,0.18-0.08,0.38-0.17,0.55
			c-0.28,0.57-0.93,0.89-1.57,0.8c-0.66-0.09-1.18-0.55-1.2-1.17c-0.01-0.4,0.07-0.82,0.19-1.21c0.43-1.37,0.91-2.72,1.39-4.17
			c-1.57-0.27-3.09-0.54-4.67-0.81c-0.11,0.24-0.23,0.46-0.31,0.68c-0.54,1.51-1.07,3.02-1.61,4.52c-0.04,0.12-0.09,0.24-0.15,0.36
			c-0.34,0.62-0.98,0.92-1.67,0.77c-0.73-0.16-1.22-0.75-1.14-1.42c0.04-0.31,0.16-0.61,0.27-0.91c0.43-1.21,0.87-2.41,1.3-3.62
			c0.12-0.33,0.2-0.66,0.32-1.06c-1.76-0.44-3.45-0.86-5.22-1.3c-0.3,0.49-0.56,0.93-0.83,1.37c-0.73,1.16-1.46,2.33-2.21,3.49
			c-0.18,0.27-0.38,0.55-0.65,0.75c-0.51,0.4-1.17,0.42-1.71,0.11c-0.53-0.3-0.79-0.87-0.59-1.41c0.11-0.3,0.28-0.58,0.46-0.86
			c0.59-0.94,1.21-1.87,1.8-2.82C161.37,229.64,161.63,229.16,161.88,228.72z"/>
		<path class="st8" d="M184.67,112.62c-0.19-1.77-0.36-3.46-0.55-5.15c-0.34-3.03-0.68-6.06-1.02-9.08c-0.2-1.8-0.42-3.6-0.57-5.41
			c-0.16-2-0.06-4,0.61-5.92c0.52-1.5,1.48-2.64,3.01-3.25c1.91-0.78,3.93-1.07,5.96-1.19c10.41-0.62,20.83-0.82,31.26-0.61
			c2.93,0.06,5.86,0.44,8.78,0.77c3.63,0.41,4.88,2.61,5.38,5.01c0.33,1.59,0.52,3.24,0.51,4.86c-0.02,5.01-0.16,10.02-0.28,15.03
			c-0.03,1.41-0.14,2.82-0.22,4.32c1.26,0.15,2.44,0.27,3.61,0.44c0.68,0.1,1.36,0.25,2,0.48c1.03,0.37,1.67,1.15,1.87,2.23
			c0.1,0.53,0.18,1.08,0.16,1.62c-0.12,3.55-0.24,7.11-0.41,10.66c-0.04,0.9-0.21,1.81-0.45,2.68c-0.48,1.74-1.49,2.41-3.28,2.38
			c-6.43-0.08-12.85-0.21-19.28-0.22c-4.03,0-8.06,0.16-12.09,0.29c-3.26,0.11-6.53,0.24-9.79,0.43c-3.26,0.2-6.51,0.51-9.77,0.74
			c-2.06,0.14-4.13,0.29-6.2,0.32c-2.55,0.03-3.93-1.01-4.62-3.45c-0.93-3.25-1.62-6.56-1.88-9.93c-0.11-1.4-0.12-2.83,0.02-4.22
			c0.19-1.96,1.36-3.05,3.31-3.34C181.98,112.92,183.24,112.79,184.67,112.62z"/>
		<g>
			<path class="st9" d="M96.74,160.44c0.09-3.93,2.79-7.24,6.73-8.21c2.63-0.65,5.06-0.27,7.28,1.28c0.68,0.48,1.33,1,1.97,1.53
				c0.68,0.56,1.31,1.19,2.01,1.73c0.42,0.33,0.91,0.61,1.41,0.8c0.69,0.27,1.12,0.05,1.3-0.67c0.13-0.52,0.13-1.08,0.11-1.61
				c-0.05-1.32-0.21-2.64,0.08-3.96c0.27-1.24,0.85-2.28,1.84-3.08c1.33-1.07,2.98-1.18,4.43-0.28c0.99,0.61,1.76,1.46,2.44,2.38
				c0.99,1.35,1.79,2.81,2.45,4.34c1.51,3.46,2.78,7.01,3.91,10.61c0.3,0.94,0.51,1.91,0.28,2.92c-0.25,1.08-0.78,1.99-1.55,2.75
				c-0.85,0.84-1.76,1.62-2.62,2.45c-1.32,1.29-2.63,2.59-3.94,3.9c-0.18,0.18-0.36,0.38-0.53,0.57c-2.02,2.32-4.56,2.99-7.48,2.21
				c-1.33-0.35-2.64-0.8-3.91-1.32c-4.19-1.71-7.94-4.12-11.08-7.4c-2.28-2.39-3.96-5.15-4.75-8.39
				C96.95,162.15,96.87,161.29,96.74,160.44z"/>
			<path class="st9" d="M335.26,156.1c-0.09-3.93-2.79-7.24-6.73-8.21c-2.63-0.65-5.06-0.27-7.28,1.28c-0.68,0.48-1.33,1-1.97,1.53
				c-0.68,0.56-1.31,1.19-2.01,1.73c-0.42,0.33-0.91,0.61-1.41,0.8c-0.69,0.27-1.12,0.05-1.3-0.67c-0.13-0.52-0.13-1.08-0.11-1.61
				c0.05-1.32,0.21-2.64-0.08-3.96c-0.27-1.24-0.85-2.28-1.84-3.08c-1.33-1.07-2.98-1.18-4.43-0.28c-0.99,0.61-1.76,1.46-2.44,2.38
				c-0.99,1.35-1.79,2.81-2.45,4.34c-1.51,3.46-2.78,7.01-3.91,10.61c-0.3,0.94-0.51,1.91-0.28,2.92c0.25,1.08,0.78,1.99,1.55,2.75
				c0.85,0.84,1.76,1.62,2.62,2.45c1.32,1.29,2.63,2.59,3.94,3.9c0.18,0.18,0.36,0.38,0.53,0.57c2.02,2.32,4.56,2.99,7.48,2.21
				c1.33-0.35,2.64-0.8,3.91-1.32c4.19-1.71,7.94-4.12,11.08-7.4c2.28-2.39,3.96-5.15,4.75-8.39
				C335.05,157.8,335.13,156.95,335.26,156.1z"/>
		</g>
	</g>
</g>
</svg>
